PathFileType	4	(X/Y/Z)	Patient4_TMGait_0pt8_01_left_44.trc.trc
DataRate	CameraRate	NumFrames	NumMarkers	Units	OrigDataRate	OrigDataStartFrame	OrigNumFrames
84.337349397590	84.337349397590	6	33	mm	84.337349397590	71	       141
Frame#	Time	Sacral			L.Shoulder			Chest			R.Shoulder			Neck			R.ASIS			L.ASIS			R.Thigh.Superior			R.Thigh.Lateral			R.Thigh.Inferior			R.Patella			L.Thigh.Superior			L.Thigh.Lateral			L.Thigh.Inferior			L.Patella			L.Shank.Superior			L.Shank.Lateral			L.Shank.Inferior			R.Shank.Superior			R.Shank.Lateral			R.Shank.Inferior			R.Heel			R.Midfoot.Superior			R.Midfoot.Lateral			R.Toe			L.Heel			L.Midfoot.Lateral			L.Midfoot.Superior			L.Toe			L.Elbow			L.Wrist			R.Elbow			R.Wrist			
		X1	Y1	Z1	X2	Y2	Z2	X3	Y3	Z3	X4	Y4	Z4	X5	Y5	Z5	X6	Y6	Z6	X7	Y7	Z7	X8	Y8	Z8	X9	Y9	Z9	X10	Y10	Z10	X11	Y11	Z11	X12	Y12	Z12	X13	Y13	Z13	X14	Y14	Z14	X15	Y15	Z15	X16	Y16	Z16	X17	Y17	Z17	X18	Y18	Z18	X19	Y19	Z19	X20	Y20	Z20	X21	Y21	Z21	X22	Y22	Z22	X23	Y23	Z23	X24	Y24	Z24	X25	Y25	Z25	X26	Y26	Z26	X27	Y27	Z27	X28	Y28	Z28	X29	Y29	Z29	X30	Y30	Z30	X31	Y31	Z31	X32	Y32	Z32	X33	Y33	Z33	

71	49.660000000000	914.977107288866	1002.481092148691	439.701778974051	1119.867206118356	1434.450232187483	281.394368136126	1205.407141908662	1356.256505750890	448.019462156652	1108.036120229271	1425.206079437508	616.633075800225	1087.429756350188	1488.087359055145	437.195880972740	1136.272301958887	936.425820512739	569.603815994340	1134.338257259061	955.932252674146	294.616776737528	1213.918569210882	771.267627773545	542.192560406943	1180.405514317674	651.395706476110	622.941213250981	1268.659982855201	614.509074745102	541.338036522363	1308.076370603469	534.123024081263	562.315285318876	1128.701672572931	725.814460842185	324.185917547646	1006.753767672604	634.463239418066	263.741154611547	1063.673202743848	540.114003875281	329.778082918060	1047.865021496984	476.177504923946	340.098028929023	1015.620490039833	411.573951480383	335.279142039499	915.870659539084	303.423564303248	290.716323487308	958.511633661688	190.999578546659	365.981776649672	1294.750175128233	446.812193042679	575.298447864223	1247.226398651869	332.406445701585	642.288421244984	1320.513770677461	248.246477130590	592.565032317620	1237.977209945729	54.028459636031	568.679713474257	1395.757893407192	139.911362690174	608.378644435133	1323.013981885734	57.760611659267	641.468261733852	1522.575754207557	111.235469035205	632.496205561025	823.819450792321	39.955501974690	419.667649549844	893.930102316653	36.046291198041	336.128431593855	979.077880439986	95.850273285565	359.241336305469	1105.598311195121	42.087643811070	325.557977301179	1232.410531073761	1135.929876690054	112.362015479068	1486.452964707235	1132.990826078444	151.807225655518	929.824824218528	1128.160346471384	708.043800768724	853.105777809677	881.420531660915	728.994992055843	
72	49.671857142857	916.042083654276	1000.222760943645	441.052759943192	1120.057992307495	1432.576912407835	282.951392408850	1205.367431547768	1354.890523598961	449.876704303926	1107.299415146240	1424.028130455792	618.007909304022	1087.158655780562	1486.239330301686	438.538143800836	1137.123523973351	934.212593318153	571.511542684565	1135.691925087284	954.289364749193	296.487549910068	1213.507677766913	767.426021570931	543.995636358717	1177.884287465992	647.238593875952	623.376086018933	1266.148742462907	610.182752120487	542.001489949091	1304.518221806031	530.376913963030	562.009647880310	1127.963530545965	723.780087874545	325.419469289115	1005.031277263437	633.529006915625	264.694065345433	1060.811895929918	538.519375350500	330.775399865439	1044.309551208239	474.387438898240	340.980826841817	1011.063185517604	410.216196953593	335.977034129826	909.721870624728	303.554833616135	291.027750794609	950.580564159627	190.401600296135	366.120070325876	1292.344209896726	443.052169223907	574.631042013232	1245.753967568960	327.584913401114	640.235739786626	1320.543307159632	244.817197680738	590.344043913251	1240.744306164136	50.011841528603	564.692310372843	1397.109272148274	137.345569258889	605.591045239530	1325.132647118507	54.632300414003	638.098467283750	1524.111931264873	110.173367978453	630.642967354043	814.284350407005	40.146952703167	419.424233760339	884.468443198138	36.058383387986	336.013015918154	969.649018036046	95.820127633260	359.190637310861	1096.121564827388	41.780392657006	325.512907662697	1234.855782921719	1135.790446242235	113.461605470363	1488.042701454727	1143.068825462734	154.281397465426	924.335683323331	1131.182542620113	709.259236970310	843.490659636727	885.731008537201	729.969974090846	
73	49.683714285714	917.265365174346	997.958167191468	442.739760811618	1120.153172178869	1430.663005470083	284.575302180521	1205.361662053723	1353.606013790976	451.790028675472	1106.632692078985	1422.870971610040	619.485480632959	1086.870434701902	1484.405146292220	439.957576083879	1138.239282645228	932.032520112431	573.581551652444	1137.159649177351	952.625042620038	298.531463138889	1213.702642764619	763.879269694826	545.886234099597	1175.771182134459	643.229197722754	623.582209665705	1264.204971753380	606.163990519713	542.628723197589	1301.328745539734	526.544749114915	561.596878920630	1127.614701679334	721.769754672687	326.760402723290	1003.756006954436	632.537078580421	265.894427113045	1058.545516826538	536.866930395258	331.919238951987	1041.380221622032	472.457905732581	342.046192062780	1007.039151927016	408.715645145135	336.838635746188	903.938032514515	303.744902173226	291.478214188935	942.827758550382	189.784162547033	366.315343496184	1289.711016135613	438.991326621157	573.797771770731	1243.102957898096	322.889151734304	637.943839697712	1318.635846226396	240.950209357951	587.939365349765	1239.783913541165	46.803263118869	560.653188840250	1395.561451693353	133.773817360384	602.583014833565	1323.509037447226	51.531272799889	634.692886388712	1522.350798020752	106.726689586701	628.607417452183	804.734965231479	40.459671957934	419.127899121147	875.030404960632	36.099720891851	335.874790426450	960.265935572534	95.817694680444	359.125754286285	1086.678624603239	41.442626987320	325.455829064084	1236.746958451707	1135.204122051870	114.816144490007	1488.807773565133	1151.787569907801	156.816802596458	920.070123536136	1133.427469686445	710.555196054462	835.713363634237	889.111373728563	731.043909642646	
74	49.695571428571	918.621434829632	995.777701907213	444.743413702925	1120.186684574546	1428.765971571293	286.278743521520	1205.424521967709	1352.430599528113	453.762959191318	1106.087926059490	1421.753561464689	621.087789254294	1086.605790567367	1482.638100801124	441.473677995462	1139.603279322343	929.952418317090	575.788387427809	1138.716043873819	950.982983021237	300.729031029037	1214.456540595031	760.649934334397	547.869503999015	1174.007295697901	639.445835124026	623.614746839714	1262.785733000814	602.519494675260	543.272071226802	1298.504437621034	522.732798130985	561.125260629462	1127.642464444827	719.831040299727	328.176640809746	1002.900301778505	631.523664277277	267.334458294086	1056.878210839773	535.188554833328	333.178139651613	1039.096257180324	470.407094580465	343.243323424260	1003.539628520790	407.103519971232	337.832728867109	898.506987092337	304.043302433892	292.060809490633	935.257961397148	189.194639970332	366.540732749795	1286.943108639389	434.771231233625	572.870608980742	1239.545493321226	318.392637615321	635.579373029983	1315.144868132815	236.756981138627	585.475679072109	1235.605564928912	44.337284247184	556.797423809393	1391.624094442097	129.358867430605	599.466987869114	1318.735317448478	48.508963182226	631.427872181092	1517.901171907199	101.185266099210	626.396933475432	795.170106706736	40.966652582567	418.775593185329	865.613794254802	36.193097324217	335.709733334822	950.953510961936	95.850184033703	359.022029871306	1077.273869565318	41.086225533725	325.384706809035	1238.052674524209	1134.175447710315	116.424795109466	1488.834225244627	1159.081042854622	159.394606010344	917.059174910252	1134.807658831707	711.930335868951	829.789397490168	891.476236238682	732.253359590823	
75	49.707428571429	920.079390270181	993.774918589149	447.028968074543	1120.194245978305	1426.951753827756	288.071336593748	1205.588817302659	1351.397867392844	455.797111459325	1105.715621248565	1420.707467227684	622.832431454578	1086.407311192107	1481.001073186875	443.103130673189	1141.187597484946	928.050775619401	578.105522066495	1140.335650585078	949.416545530661	303.060216498383	1215.685865759722	757.757149977632	549.949135099090	1172.546385369249	635.983229226502	623.567847655231	1261.820812687669	599.309438004846	543.981942877702	1296.022018982857	519.056750185982	560.660290648398	1128.028517056940	718.023011985060	329.647460485643	1002.450021557544	630.527490774566	268.997013214158	1055.830648278261	533.526104750295	334.519607098224	1037.492670792010	468.258697922587	344.507593153584	1000.568683250644	405.421375273675	338.914843917123	893.430265540097	304.513712012199	292.762161754796	927.890564044583	188.694476247854	366.760023708420	1284.133339456191	430.564851601123	571.942239736503	1235.395380240458	314.200501186312	633.331169863474	1310.476660384178	232.415685628694	583.092338646179	1228.860406652187	42.560802778811	553.340493763112	1385.862440896452	124.377606226405	596.375306329113	1311.523061440713	45.665924527018	628.470595667269	1511.427736238396	94.043157472315	624.055984392329	785.599271765400	41.766656261388	418.366801854883	856.218482804845	36.375658464535	335.515188297753	941.748936603718	95.926439162545	358.847469574409	1067.910140241938	40.726008749819	325.298799250802	1238.738291755908	1132.718569894711	118.289582716216	1488.200274848926	1164.898682767143	161.998004547667	915.315994910788	1135.289836841644	713.393285619076	825.746855671868	892.780087910846	733.626733715175	
76	49.719285714286	921.604814573221	992.041310135652	449.551052994718	1120.211076556636	1425.293332920725	289.957811025591	1205.881308683386	1350.547942488673	457.891362932995	1105.559097307664	1419.777917176171	624.729333963896	1086.315051605290	1479.565148406807	444.857001838292	1142.951188204450	926.413923702758	580.509406192591	1141.991744553667	947.988210109119	305.505788041866	1217.281049098672	755.230498747441	552.123540054665	1171.366754895127	632.950945409949	623.560743574032	1261.226170851599	596.590757830148	544.800546507242	1293.847826107717	515.639759912643	560.281593008689	1128.754926523735	716.413624813372	331.167925650090	1002.416057248795	629.584872994053	270.857167363633	1055.453325429352	531.928072780939	335.912016303518	1036.631776302917	466.040472193558	345.764009713518	998.157545184930	403.716967675385	340.028955485934	888.736318988439	305.231252209404	293.563394966578	920.768040327827	188.356776596817	366.930083527925	1281.367197698406	426.561146816214	571.114535359898	1230.970955619718	310.437744021649	631.389618553025	1305.040107308143	228.144145207460	580.926586791887	1220.259954649584	41.415539601466	550.448096574274	1378.827086020138	119.178763980878	593.449319483354	1302.614469165217	43.120263749244	625.958634464621	1503.574891639705	85.938298154197	621.675325768931	776.048984213319	42.987428358775	417.902879308307	846.850079814409	36.704085952417	335.290274842641	932.703960573940	96.057855054258	358.564972916524	1058.587854141389	40.377323790647	325.199468219075	1238.766449817514	1130.859462540138	120.416010449988	1486.974713569287	1169.203183607661	164.611673016793	914.838137351530	1134.895613283326	714.960334461800	823.623834866962	893.017375844683	735.183375235547	
